<svg xmlns="http://www.w3.org/2000/svg" width="880" height="236" viewBox="0 0 880 236" role="img" aria-label="About: B.Sc. in Computer Engineering at Isfahan University of Technology; exploring TinyML and on-device learning; capstone smart home with on-MCU face recognition">
<title>About: B.Sc. in Computer Engineering at Isfahan University of Technology; exploring TinyML and on-device learning; capstone smart home with on-MCU face recognition</title>
<style>
text{font-family:'Segoe UI',-apple-system,BlinkMacSystemFont,'Helvetica Neue',Arial,sans-serif}
.card{fill:#F6F8FA;stroke:#D0D7DE;stroke-width:1.2}
.line{stroke:#D0D7DE;stroke-width:1}
.t1{fill:#1F2328}.t2{fill:#59636E}.ac{fill:#0E7C7B}.acs{stroke:#0E7C7B}
.chip{fill:#0E7C7B;fill-opacity:.09;stroke:#0E7C7B;stroke-opacity:.35;stroke-width:1}
.chipt{fill:#0B5E5D}.dot{fill:#0E7C7B}
.g1{stop-color:#0E7C7B}.g2{stop-color:#0D1B2A}
@media (prefers-color-scheme:dark){
.card{fill:#161B22;stroke:#30363D}.line{stroke:#30363D}
.t1{fill:#E6EDF3}.t2{fill:#9198A1}.ac{fill:#2DD4BF}.acs{stroke:#2DD4BF}
.chip{fill:#2DD4BF;fill-opacity:.10;stroke:#2DD4BF;stroke-opacity:.38}
.chipt{fill:#7EE8D8}.dot{fill:#2DD4BF}
.g1{stop-color:#14A39F}.g2{stop-color:#0D1B2A}}
</style>
<g transform="translate(0 6)"><rect x="1" y="1" width="878" height="222" rx="14" class="card"/><circle cx="46" cy="44.0" r="19" class="chip"/><g transform="translate(34 32.0) scale(1.0)" fill="none" class="acs" stroke-width="1.8" stroke-linecap="round" stroke-linejoin="round"><path d="M12 4 22 9l-10 5L2 9z"/><path d="M6 11.5v4c0 1.6 2.7 3 6 3s6-1.4 6-3v-4"/></g><text x="84" y="49.5" font-size="15.5" class="t1"><tspan>B.Sc. in Computer Engineering (Intelligent Systems) — </tspan><tspan font-weight="700">Isfahan University of Technology</tspan></text><line x1="84" y1="77" x2="850" y2="77" class="line"/><circle cx="46" cy="111.0" r="19" class="chip"/><g transform="translate(34 99.0) scale(1.0)" fill="none" class="acs" stroke-width="1.8" stroke-linecap="round" stroke-linejoin="round"><path d="M12 21v-9"/><path d="M12 12c0-4 3-7 8-7 0 5-3 8-8 7z"/><path d="M12 15c0-3-2-5-6-5 0 4 2 6 6 5z"/></g><text x="84" y="105.0" font-size="15.5" class="t1"><tspan>Exploring </tspan><tspan font-weight="700">TinyML / on-device learning </tspan><tspan>and IoT architecture — bringing intelligence to where the data</tspan></text><text x="84" y="128.0" font-size="15.5" class="t1"><tspan>is born</tspan></text><line x1="84" y1="145" x2="850" y2="145" class="line"/><circle cx="46" cy="179.0" r="19" class="chip"/><g transform="translate(34 167.0) scale(1.0)" fill="none" class="acs" stroke-width="1.8" stroke-linecap="round" stroke-linejoin="round"><path d="M13 2 4 14h7l-1 8 10-13h-7z"/></g><text x="84" y="173.0" font-size="15.5" class="t1"><tspan>B.Sc. capstone: a smart home running </tspan><tspan font-weight="700">face recognition and behavior learning entirely on the MCU</tspan></text><text x="84" y="196.0" font-size="15.5" class="t1"><tspan>— cloud-free by design</tspan></text></g>
</svg>
