<svg xmlns="http://www.w3.org/2000/svg" width="880" height="324" viewBox="0 0 880 324" role="img" aria-label="Tech stack — Embedded &amp; RTOS: STM32 F4/F7, ESP32 / ESP32-S3, ESP8266, ESP-IDF, FreeRTOS, LVGL; Protocols &amp; data: UART, I²C, RS-485, Modbus RTU, MQTT, LoRaWAN, DMA, Timer Input Capture; Toolchain &amp; debug: Keil MDK, STM32CubeIDE, STM32CubeMX, Doxygen, ST-LINK, Logic analyzer, Git, Home Assistant; AI &amp; vision: PyTorch, OpenCV, ESP-DL, TinyML">
<title>Tech stack — Embedded &amp; RTOS: STM32 F4/F7, ESP32 / ESP32-S3, ESP8266, ESP-IDF, FreeRTOS, LVGL; Protocols &amp; data: UART, I²C, RS-485, Modbus RTU, MQTT, LoRaWAN, DMA, Timer Input Capture; Toolchain &amp; debug: Keil MDK, STM32CubeIDE, STM32CubeMX, Doxygen, ST-LINK, Logic analyzer, Git, Home Assistant; AI &amp; vision: PyTorch, OpenCV, ESP-DL, TinyML</title>
<style>
text{font-family:'Segoe UI',-apple-system,BlinkMacSystemFont,'Helvetica Neue',Arial,sans-serif}
.card{fill:#F6F8FA;stroke:#D0D7DE;stroke-width:1.2}
.line{stroke:#D0D7DE;stroke-width:1}
.t1{fill:#1F2328}.t2{fill:#59636E}.ac{fill:#0E7C7B}.acs{stroke:#0E7C7B}
.chip{fill:#0E7C7B;fill-opacity:.09;stroke:#0E7C7B;stroke-opacity:.35;stroke-width:1}
.chipt{fill:#0B5E5D}.dot{fill:#0E7C7B}
.g1{stop-color:#0E7C7B}.g2{stop-color:#0D1B2A}
@media (prefers-color-scheme:dark){
.card{fill:#161B22;stroke:#30363D}.line{stroke:#30363D}
.t1{fill:#E6EDF3}.t2{fill:#9198A1}.ac{fill:#2DD4BF}.acs{stroke:#2DD4BF}
.chip{fill:#2DD4BF;fill-opacity:.10;stroke:#2DD4BF;stroke-opacity:.38}
.chipt{fill:#7EE8D8}.dot{fill:#2DD4BF}
.g1{stop-color:#14A39F}.g2{stop-color:#0D1B2A}}
</style>
<g transform="translate(0 6)"><rect x="1" y="1" width="878" height="310" rx="14" class="card"/><text x="30" y="40.0" font-size="14.5" font-weight="700" class="ac">Embedded &amp; RTOS</text><rect x="214.0" y="22" width="108.5" height="26" rx="13.0" class="chip"/><text x="268.3" y="39.4" font-size="12.5" font-weight="600" text-anchor="middle" class="chipt">STM32 F4/F7</text><rect x="330.5" y="22" width="142.3" height="26" rx="13.0" class="chip"/><text x="401.7" y="39.4" font-size="12.5" font-weight="600" text-anchor="middle" class="chipt">ESP32 / ESP32-S3</text><rect x="480.8" y="22" width="83.0" height="26" rx="13.0" class="chip"/><text x="522.4" y="39.4" font-size="12.5" font-weight="600" text-anchor="middle" class="chipt">ESP8266</text><rect x="571.9" y="22" width="79.3" height="26" rx="13.0" class="chip"/><text x="611.5" y="39.4" font-size="12.5" font-weight="600" text-anchor="middle" class="chipt">ESP-IDF</text><rect x="659.1" y="22" width="91.8" height="26" rx="13.0" class="chip"/><text x="705.0" y="39.4" font-size="12.5" font-weight="600" text-anchor="middle" class="chipt">FreeRTOS</text><rect x="758.9" y="22" width="61.0" height="26" rx="13.0" class="chip"/><text x="789.4" y="39.4" font-size="12.5" font-weight="600" text-anchor="middle" class="chipt">LVGL</text><line x1="30" y1="64" x2="850" y2="64" class="line"/><text x="30" y="115.0" font-size="14.5" font-weight="700" class="ac">Protocols &amp; data</text><rect x="214.0" y="80" width="63.5" height="26" rx="13.0" class="chip"/><text x="245.7" y="97.4" font-size="12.5" font-weight="600" text-anchor="middle" class="chipt">UART</text><rect x="285.5" y="80" width="44.0" height="26" rx="13.0" class="chip"/><text x="307.5" y="97.4" font-size="12.5" font-weight="600" text-anchor="middle" class="chipt">I²C</text><rect x="337.5" y="80" width="71.8" height="26" rx="13.0" class="chip"/><text x="373.4" y="97.4" font-size="12.5" font-weight="600" text-anchor="middle" class="chipt">RS-485</text><rect x="417.3" y="80" width="109.2" height="26" rx="13.0" class="chip"/><text x="471.9" y="97.4" font-size="12.5" font-weight="600" text-anchor="middle" class="chipt">Modbus RTU</text><rect x="534.5" y="80" width="64.2" height="26" rx="13.0" class="chip"/><text x="566.6" y="97.4" font-size="12.5" font-weight="600" text-anchor="middle" class="chipt">MQTT</text><rect x="606.7" y="80" width="91.2" height="26" rx="13.0" class="chip"/><text x="652.3" y="97.4" font-size="12.5" font-weight="600" text-anchor="middle" class="chipt">LoRaWAN</text><rect x="706.0" y="80" width="56.7" height="26" rx="13.0" class="chip"/><text x="734.3" y="97.4" font-size="12.5" font-weight="600" text-anchor="middle" class="chipt">DMA</text><rect x="214.0" y="114" width="154.0" height="26" rx="13.0" class="chip"/><text x="291.0" y="131.4" font-size="12.5" font-weight="600" text-anchor="middle" class="chipt">Timer Input Capture</text><line x1="30" y1="156" x2="850" y2="156" class="line"/><text x="30" y="207.0" font-size="14.5" font-weight="700" class="ac">Toolchain &amp; debug</text><rect x="214.0" y="172" width="85.3" height="26" rx="13.0" class="chip"/><text x="256.6" y="189.4" font-size="12.5" font-weight="600" text-anchor="middle" class="chipt">Keil MDK</text><rect x="307.3" y="172" width="125.8" height="26" rx="13.0" class="chip"/><text x="370.1" y="189.4" font-size="12.5" font-weight="600" text-anchor="middle" class="chipt">STM32CubeIDE</text><rect x="441.0" y="172" width="123.5" height="26" rx="13.0" class="chip"/><text x="502.8" y="189.4" font-size="12.5" font-weight="600" text-anchor="middle" class="chipt">STM32CubeMX</text><rect x="572.5" y="172" width="83.0" height="26" rx="13.0" class="chip"/><text x="614.0" y="189.4" font-size="12.5" font-weight="600" text-anchor="middle" class="chipt">Doxygen</text><rect x="663.5" y="172" width="78.5" height="26" rx="13.0" class="chip"/><text x="702.8" y="189.4" font-size="12.5" font-weight="600" text-anchor="middle" class="chipt">ST-LINK</text><rect x="214.0" y="206" width="119.8" height="26" rx="13.0" class="chip"/><text x="273.9" y="223.4" font-size="12.5" font-weight="600" text-anchor="middle" class="chipt">Logic analyzer</text><rect x="341.8" y="206" width="44.7" height="26" rx="13.0" class="chip"/><text x="364.1" y="223.4" font-size="12.5" font-weight="600" text-anchor="middle" class="chipt">Git</text><rect x="394.5" y="206" width="127.5" height="26" rx="13.0" class="chip"/><text x="458.3" y="223.4" font-size="12.5" font-weight="600" text-anchor="middle" class="chipt">Home Assistant</text><line x1="30" y1="248" x2="850" y2="248" class="line"/><text x="30" y="282.0" font-size="14.5" font-weight="700" class="ac">AI &amp; vision</text><rect x="214.0" y="264" width="79.0" height="26" rx="13.0" class="chip"/><text x="253.5" y="281.4" font-size="12.5" font-weight="600" text-anchor="middle" class="chipt">PyTorch</text><rect x="301.0" y="264" width="79.3" height="26" rx="13.0" class="chip"/><text x="340.6" y="281.4" font-size="12.5" font-weight="600" text-anchor="middle" class="chipt">OpenCV</text><rect x="388.3" y="264" width="75.5" height="26" rx="13.0" class="chip"/><text x="426.0" y="281.4" font-size="12.5" font-weight="600" text-anchor="middle" class="chipt">ESP-DL</text><rect x="471.8" y="264" width="73.0" height="26" rx="13.0" class="chip"/><text x="508.3" y="281.4" font-size="12.5" font-weight="600" text-anchor="middle" class="chipt">TinyML</text></g>
</svg>
